# xmcd
#
# Track frame offsets:
#	150
#	21241
#	38392
#	54465
#	76461
#	99972
#	113405
#	137271
#	151449
#	172340
#	188291
#	209512
#	225384
#	244092
#	256543
#	276695
#	307308
#	321863
#
# Disc length: 4625 seconds
#
# Revision: 0
# Processed by: cddbd v1.5.2PL0 Copyright (c) Steve Scherf et al.
# Submitted via: EasyCDDAExtractor 15.3.0.1
#
DISCID=e8120f12
DTITLE=Yuri - Lo Esencial De Yuri - CD 3
DYEAR=2010
DGENRE=Latin
TTITLE0=Detras De Mi Ventana
TTITLE1=Yo Te Pido Amor
TTITLE2=El Apagon
TTITLE3=Callados (Con Mijares)
TTITLE4=Todo Mi Corazon
TTITLE5=Hola
TTITLE6=Volver A Empezar
TTITLE7=Dejame Amarte Mas
TTITLE8=Un Romance
TTITLE9=Como Te Ame (I'll Never Love This Way Again)
TTITLE10=De Que Te Vale Fingir
TTITLE11=Este Es Mi Chico
TTITLE12=Karma Kamaleon
TTITLE13=La Boa (Con La Sonora Santanera)
TTITLE14=Quimica Perfecta (Con Luis Enrique)
TTITLE15=Celia Mix (Bemba Colora, El Yerbero Moderno, Quimbara)
TTITLE16=La Mucura (Con Nigga)
TTITLE17=Siempre Fiel (Elenco Sony)
EXTD=
EXTT0=
EXTT1=
EXTT2=
EXTT3=
EXTT4=
EXTT5=
EXTT6=
EXTT7=
EXTT8=
EXTT9=
EXTT10=
EXTT11=
EXTT12=
EXTT13=
EXTT14=
EXTT15=
EXTT16=
EXTT17=
PLAYORDER=
